<svg class="ldi-g1oc2g" width="200px"  height="200px"  xmlns="http://www.w3.org/2000/svg" xmlns:xlink="http://www.w3.org/1999/xlink" viewBox="0 0 100 100" preserveAspectRatio="xMidYMid" style="background: none;"><!--?xml version="1.0" encoding="utf-8"?--><!--Generator: Adobe Illustrator 21.0.0, SVG Export Plug-In . SVG Version: 6.00 Build 0)--><svg version="1.1" id="圖層_1" xmlns="http://www.w3.org/2000/svg" xmlns:xlink="http://www.w3.org/1999/xlink" x="0px" y="0px" viewBox="0 0 100 100" style="transform-origin: 50px 50px 0px;" xml:space="preserve"><g style="transform-origin: 50px 50px 0px;"><g style="transform-origin: 50px 50px 0px; transform: scale(0.6);"><g style="transform-origin: 50px 50px 0px;"><g><style type="text/css" class="ld ld-breath" style="transform-origin: 50px 50px 0px; animation-duration: 1s; animation-delay: -1s; animation-direction: normal;">.st0{fill:#666666;} .st1{fill:#EBB885;} .st2{fill:#E0E0E0;} .st3{fill:#A0C8D7;} .st4{fill:#66503A;} .st5{fill:#ABBD81;} .st6{fill:#A0C8D7;stroke:#333333;stroke-width:2;stroke-miterlimit:10;} .st7{fill:#FFFFFF;} .st8{fill:#66503A;stroke:#333333;stroke-width:2;stroke-miterlimit:10;} .st9{fill:#E0E0E0;stroke:#333333;stroke-width:2;stroke-miterlimit:10;} .st10{fill:#03AFF3;} .st11{fill:none;stroke:#333333;stroke-width:5;stroke-linecap:round;stroke-miterlimit:10;} .st12{fill:#8C6239;} .st13{fill:#F5E6C8;} .st14{fill:#333333;} .st15{fill:#F47E60;} .st16{fill:#E15B64;} .st17{fill:none;stroke:#000000;stroke-width:6;stroke-miterlimit:10;} .st18{fill:#4A3827;} .st19{fill:none;stroke:#666666;stroke-width:5.8262;stroke-linecap:round;stroke-miterlimit:10;} .st20{fill:#77A4BD;} .st21{fill:#F8B26A;} .st22{fill:#849B87;} .st23{fill:none;} .st24{fill:#FFFFFF;stroke:#000000;stroke-width:4;stroke-miterlimit:10;} .st25{fill:none;stroke:#849B87;stroke-width:4;stroke-miterlimit:10;} .st26{fill:none;stroke:#849B87;stroke-width:4.1718;stroke-miterlimit:10;} .st27{fill:#C33737;} .st28{fill:#FFDC6C;stroke:#FFFFFF;stroke-width:2.4393;stroke-miterlimit:10;} .st29{stroke:#000000;stroke-width:3;stroke-miterlimit:10;} .st30{stroke:#000000;stroke-width:3;stroke-linecap:round;stroke-linejoin:round;stroke-miterlimit:10;} .st31{fill:#E0E0E0;stroke:#000000;stroke-width:3;stroke-miterlimit:10;} .st32{fill:#735441;} .st33{fill:#C8DC96;} .st34{fill:#F5E6C8;stroke:#C33737;stroke-width:6;stroke-miterlimit:10;} .st35{fill:#F5E6C8;stroke:#000000;stroke-width:4.2393;stroke-miterlimit:10;} .st36{fill:#F5E169;} .st37{fill:#FFDC6C;} .st38{fill:none;stroke:#000000;stroke-width:5.1342;stroke-miterlimit:10;} .st39{fill:none;stroke:#000000;stroke-width:4.908;stroke-miterlimit:10;} .st40{fill:none;stroke:#000000;stroke-width:5.0371;stroke-miterlimit:10;} .st41{fill:none;stroke:#000000;stroke-width:5.4333;stroke-miterlimit:10;} .st42{fill:none;stroke:#333333;stroke-width:4.308;stroke-miterlimit:10;} .st43{fill:#F8B26A;stroke:#333333;stroke-width:3;stroke-miterlimit:10;} .st44{fill:#FFFF00;stroke:#333333;stroke-width:3;stroke-miterlimit:10;} .st45{fill:#F8B26A;stroke:#F47E60;stroke-width:2.326;stroke-miterlimit:10;} .st46{fill:#333333;stroke:#333333;stroke-width:3;stroke-miterlimit:10;} .st47{fill:#8A8A8A;} .st48{fill:none;stroke:#333333;stroke-width:3;stroke-linecap:round;stroke-linejoin:round;stroke-miterlimit:10;} .st49{fill:none;stroke:#333333;stroke-width:2;stroke-linecap:round;stroke-linejoin:round;stroke-miterlimit:10;} .st50{fill:#983733;} .st51{fill:#D50D01;} .st52{fill:#81C927;} .st53{fill:#C33737;stroke:#333333;stroke-width:2;stroke-miterlimit:10;} .st54{fill:#F5E6C8;stroke:#333333;stroke-width:2;stroke-miterlimit:10;} .st55{fill:#FFFFFF;stroke:#333333;stroke-width:4;stroke-miterlimit:10;} .st56{fill:none;stroke:#E15B64;stroke-width:3;stroke-miterlimit:10;} .st57{fill:#FFFFFF;stroke:#333333;stroke-width:6;stroke-linecap:round;stroke-miterlimit:10;}</style><g class="ld ld-breath" style="transform-origin: 50px 50px 0px; animation-duration: 1s; animation-delay: -0.95s; animation-direction: normal;"><path class="st2" d="M33.291,47.247h2.21c1.362,0,2.52,1.019,2.692,2.37l1.869,14.618l0.377,2.945l2.603-0.445l28.374-4.855 c0.984-0.147,1.957,0.149,2.736,0.823c0.881,0.762,1.386,1.901,1.386,3.126v23.705H10.788V75.66c0-1.988,1.359-3.685,3.197-3.954 l3.291-0.563l2.719-0.465l0.393-3.077l2.3-17.984c0.173-1.351,1.329-2.37,2.691-2.37H26.2H33.291z" fill="#e0e0e0" style="fill: rgb(224, 224, 224);"></path></g><g class="ld ld-breath" style="transform-origin: 50px 50px 0px; animation-duration: 1s; animation-delay: -0.9s; animation-direction: normal;"><path d="M76.092,60.459c-1.421-1.228-3.281-1.782-5.14-1.509l-28.287,4.84l-1.854-14.508c-0.341-2.663-2.623-4.672-5.308-4.673 H25.379c-2.685,0.001-4.967,2.01-5.307,4.673L17.67,68.067l-4.148,0.71c-3.25,0.473-5.701,3.433-5.701,6.884V92.5h70.682V65.828 C78.504,63.741,77.625,61.785,76.092,60.459z M75.537,89.533H10.788V75.66c0-1.988,1.359-3.685,3.197-3.954l3.291-0.563l2.719-0.465 l0.393-3.077l2.3-17.984c0.173-1.351,1.329-2.37,2.691-2.37H26.2h7.09h2.21c1.362,0,2.52,1.019,2.692,2.37l1.869,14.618l0.377,2.945 l2.603-0.445l28.374-4.855c0.984-0.147,1.957,0.149,2.736,0.823c0.881,0.762,1.386,1.901,1.386,3.126V89.533z" fill="#ffb200" style="fill: rgb(255, 178, 0);"></path></g><g class="ld ld-breath" style="transform-origin: 50px 50px 0px; animation-duration: 1s; animation-delay: -0.85s; animation-direction: normal;"><circle id="XMLID_722_" class="st0" cx="86.994" cy="35.481" r="5.185" fill="#333333" style="fill: rgb(51, 51, 51);"></circle></g><g class="ld ld-breath" style="transform-origin: 50px 50px 0px; animation-duration: 1s; animation-delay: -0.8s; animation-direction: normal;"><path class="st23" d="M22.689,49.617l-2.3,17.984l-0.393,3.077l-2.719,0.465l-3.291,0.563c-1.839,0.268-3.197,1.965-3.197,3.954 v13.873h64.749V65.828c0-1.225-0.505-2.364-1.386-3.126c-0.779-0.674-1.752-0.97-2.736-0.823l-28.374,4.855l-2.603,0.445 l-0.377-2.945l-1.869-14.618c-0.173-1.351-1.33-2.37-2.692-2.37h-2.21H26.2h-0.819C24.019,47.247,22.862,48.266,22.689,49.617z"></path></g><g class="ld ld-breath" style="transform-origin: 50px 50px 0px; animation-duration: 1s; animation-delay: -0.75s; animation-direction: normal;"><path class="st0" d="M33.956,44.609c-0.134-1.799-1.38-3.276-3.059-3.759c0.018-0.022,0.036-0.045,0.054-0.068 c0.805,0.291,1.669,0.458,2.574,0.458c2.906,0,5.427-1.638,6.698-4.039c2.011,3.06,5.469,5.083,9.405,5.083 c3.557,0,6.723-1.654,8.783-4.233c0.761-0.952,2.059-1.24,3.127-0.652c1.807,0.995,3.881,1.562,6.09,1.562 c6.991,0,12.658-5.667,12.658-12.658c0-0.754-0.078-1.488-0.204-2.205c0.556,0.129,1.133,0.204,1.729,0.204 c4.291,0,7.754-3.543,7.623-7.863c-0.123-4.08-3.606-7.424-7.688-7.39c-3.559,0.03-6.528,2.5-7.336,5.817 c-0.081,0.333-0.469,0.474-0.77,0.31c-0.654-0.356-1.341-0.657-2.059-0.893c0.016-0.18,0.028-0.36,0.028-0.544 c0-3.449-2.798-6.244-6.248-6.24c-3.312,0.004-6.136,2.755-6.229,6.065c-0.022,0.771,0.101,1.509,0.338,2.194 c0.144,0.417-0.002,0.868-0.329,1.164c-1.082,0.98-1.992,2.144-2.683,3.444c-0.344,0.648-1.128,0.94-1.786,0.614 c-0.051-0.025-0.102-0.05-0.154-0.075c-0.559-0.266-0.856-0.861-0.768-1.474c0.134-0.929,0.101-1.911-0.156-2.927 c-0.787-3.111-3.468-5.493-6.659-5.828c-2.743-0.288-5.227,0.864-6.803,2.789c-0.653,0.797-1.677,1.152-2.684,0.929 c-1.104-0.244-2.29-0.271-3.516-0.021c-3.385,0.691-6.059,3.487-6.592,6.9c-0.376,2.406,0.282,4.646,1.581,6.378 c-0.928,0.712-1.684,1.632-2.202,2.693c-0.254-0.03-0.51-0.051-0.772-0.051c-3.556,0-6.438,2.882-6.438,6.438 c0,3.525,2.833,6.384,6.346,6.433c-0.203,0.446-0.333,0.93-0.372,1.441h-0.103c0,0-0.001,0-0.001,0h10.123l-0.001,0H33.956z" fill="#333333" style="fill: rgb(51, 51, 51);"></path></g><g class="ld ld-breath" style="transform-origin: 50px 50px 0px; animation-duration: 1s; animation-delay: -0.7s; animation-direction: normal;"><path class="st20" d="M22.602,84.354h-4.403c-0.959,0-1.736-0.777-1.736-1.736v-1.861c0-0.959,0.777-1.736,1.736-1.736h4.403 c0.959,0,1.736,0.777,1.736,1.736v1.861C24.338,83.576,23.561,84.354,22.602,84.354z" fill="rgb(119, 164, 189)" style="fill: rgb(119, 164, 189);"></path></g><g class="ld ld-breath" style="transform-origin: 50px 50px 0px; animation-duration: 1s; animation-delay: -0.65s; animation-direction: normal;"><path class="st20" d="M33.983,84.354H29.58c-0.959,0-1.736-0.777-1.736-1.736v-1.861c0-0.959,0.777-1.736,1.736-1.736h4.403 c0.959,0,1.736,0.777,1.736,1.736v1.861C35.719,83.576,34.942,84.354,33.983,84.354z" fill="rgb(119, 164, 189)" style="fill: rgb(119, 164, 189);"></path></g><g class="ld ld-breath" style="transform-origin: 50px 50px 0px; animation-duration: 1s; animation-delay: -0.6s; animation-direction: normal;"><path class="st20" d="M45.364,84.354h-4.403c-0.959,0-1.736-0.777-1.736-1.736v-1.861c0-0.959,0.777-1.736,1.736-1.736h4.403 c0.959,0,1.736,0.777,1.736,1.736v1.861C47.1,83.576,46.323,84.354,45.364,84.354z" fill="rgb(119, 164, 189)" style="fill: rgb(119, 164, 189);"></path></g><g class="ld ld-breath" style="transform-origin: 50px 50px 0px; animation-duration: 1s; animation-delay: -0.55s; animation-direction: normal;"><path class="st20" d="M56.745,84.354h-4.403c-0.959,0-1.736-0.777-1.736-1.736v-1.861c0-0.959,0.777-1.736,1.736-1.736h4.403 c0.959,0,1.736,0.777,1.736,1.736v1.861C58.482,83.576,57.704,84.354,56.745,84.354z" fill="rgb(119, 164, 189)" style="fill: rgb(119, 164, 189);"></path></g><g class="ld ld-breath" style="transform-origin: 50px 50px 0px; animation-duration: 1s; animation-delay: -0.5s; animation-direction: normal;"><path class="st20" d="M68.126,84.354h-4.403c-0.959,0-1.736-0.777-1.736-1.736v-1.861c0-0.959,0.777-1.736,1.736-1.736h4.403 c0.959,0,1.736,0.777,1.736,1.736v1.861C69.863,83.576,69.085,84.354,68.126,84.354z" fill="rgb(119, 164, 189)" style="fill: rgb(119, 164, 189);"></path></g><metadata xmlns:d="https://loading.io/stock/" class="ld ld-breath" style="transform-origin: 50px 50px 0px; animation-duration: 1s; animation-delay: -0.45s; animation-direction: normal;">
<d:name class="ld ld-breath" style="transform-origin: 50px 50px 0px; animation-duration: 1s; animation-delay: -0.4s; animation-direction: normal;">industry</d:name>
<d:tags class="ld ld-breath" style="transform-origin: 50px 50px 0px; animation-duration: 1s; animation-delay: -0.35s; animation-direction: normal;">factory,workshop,chimney,smoke,waste,manufacture,industry,business</d:tags>
<d:license class="ld ld-breath" style="transform-origin: 50px 50px 0px; animation-duration: 1s; animation-delay: -0.3s; animation-direction: normal;">rf</d:license>
<d:slug class="ld ld-breath" style="transform-origin: 50px 50px 0px; animation-duration: 1s; animation-delay: -0.25s; animation-direction: normal;">g1oc2g</d:slug>
</metadata></g></g></g></g><style type="text/css" class="ld ld-breath" style="transform-origin: 50px 50px 0px; animation-duration: 1s; animation-delay: -0.2s; animation-direction: normal;">path,ellipse,circle,rect,polygon,polyline,line { stroke-width: 0; }@keyframes ld-breath {
  0% {
    -webkit-transform: scale(0.86);
    transform: scale(0.86);
  }
  50% {
    -webkit-transform: scale(1.06);
    transform: scale(1.06);
  }
  100% {
    -webkit-transform: scale(0.86);
    transform: scale(0.86);
  }
}
@-webkit-keyframes ld-breath {
  0% {
    -webkit-transform: scale(0.86);
    transform: scale(0.86);
  }
  50% {
    -webkit-transform: scale(1.06);
    transform: scale(1.06);
  }
  100% {
    -webkit-transform: scale(0.86);
    transform: scale(0.86);
  }
}
.ld.ld-breath {
  -webkit-animation: ld-breath 1s infinite;
  animation: ld-breath 1s infinite;
}
</style></svg></svg>